<?xml version="1.0" encoding="utf-8"?>
<!-- Generated by IcoMoon.io -->
<!DOCTYPE svg PUBLIC "-//W3C//DTD SVG 1.1//EN" "http://www.w3.org/Graphics/SVG/1.1/DTD/svg11.dtd">
<svg version="1.1" xmlns="http://www.w3.org/2000/svg" xmlns:xlink="http://www.w3.org/1999/xlink" width="60" height="60" viewBox="0 0 60 60">
<path fill="#fff" d="M46.5 45h-36.749c1.737 4.279 9.304 7.5 18.375 7.5s16.637-3.221 18.375-7.5zM0 60h5.273c0-0.151 0.164-0.658 0.653-1.179s0.963-0.696 1.105-0.696h15.82c3.131-0.059 5.273-3.691 5.273-5.625 0 0-17.578 0-21.094 0s-7.031 3.75-7.031 7.5zM49.219 52.5c-3.516 0-21.094 0-21.094 0 0 1.934 2.142 5.566 5.273 5.625h15.82c0.142 0 0.617 0.175 1.105 0.696s0.653 1.028 0.653 1.179h5.273c0-3.75-3.516-7.5-7.031-7.5zM28.125 41.25h18.375c-0.762-1.877-2.645-3.549-5.284-4.836 1.215-1.641 1.909-3.753 1.909-6.414 0-9.43-6.852-15.561-11.643-17.799 1.919-1.145 3.206-3.241 3.206-5.639 0-3.624-2.938-6.563-6.563-6.563s-6.563 2.938-6.563 6.563c0 2.397 1.286 4.494 3.206 5.639-4.791 2.238-11.643 8.369-11.643 17.799 0 2.661 0.694 4.772 1.909 6.414-2.639 1.287-4.522 2.96-5.283 4.836h18.375c0 0 0 0 0 0zM18.75 26.25v-3.75h7.5v-7.5h3.75v7.5h7.5v3.75h-7.5v7.5h-3.75v-7.5h-7.5z"></path>
</svg>
