<svg xmlns="http://www.w3.org/2000/svg" viewBox="0 0 166.99 28.17"><defs><style>.cls-1{fill:#fff;}.cls-2{fill:#231f20;}</style></defs><title>Fichier 2</title><g id="Calque_2" data-name="Calque 2"><g id="chess_pieces" data-name="chess pieces"><path class="cls-1" d="M19.82,20.89l-.19-.08a8.59,8.59,0,0,0-3.52-4.41V13.84h.84a2.54,2.54,0,0,0-.09-5.07h-.63a5.42,5.42,0,1,0-8.47,0H7.13a2.54,2.54,0,0,0,0,5.07h.8V16.4a8.58,8.58,0,0,0-3.52,4.41l-.19.08c-2,.81-4.17,2-4.17,6.18v1.1H24v-1.1C24,22.92,21.84,21.7,19.82,20.89Z"/><path class="cls-2" d="M9,13.25v3.82A7,7,0,0,0,5.3,21.41H18.69A7,7,0,0,0,15,17.07V13.25Z"/><path class="cls-2" d="M18.3,11.31a1.44,1.44,0,0,0-1.44-1.44H7.13a1.44,1.44,0,0,0,0,2.87h9.83A1.44,1.44,0,0,0,18.3,11.31Z"/><path class="cls-2" d="M10.27,9.37h3.46a4.32,4.32,0,1,0-3.46,0Z"/><path class="cls-2" d="M19.41,21.91H4.58c-1.87.76-3.48,1.71-3.48,5.16H22.89C22.89,23.62,21.28,22.66,19.41,21.91Z"/><path class="cls-1" d="M39.82,20.89l-.19-.08a8.59,8.59,0,0,0-3.52-4.41V13.84h.84a2.54,2.54,0,0,0-.09-5.07h-.63a5.42,5.42,0,1,0-8.47,0h-.63a2.54,2.54,0,0,0,0,5.07h.8V16.4a8.58,8.58,0,0,0-3.52,4.41l-.19.08c-2,.81-4.17,2-4.17,6.18v1.1H44v-1.1C44,22.92,41.84,21.7,39.82,20.89Z"/><path class="cls-2" d="M29,13.25v3.82a7,7,0,0,0-3.68,4.34H38.69A7,7,0,0,0,35,17.07V13.25Z"/><path class="cls-2" d="M38.3,11.31a1.44,1.44,0,0,0-1.44-1.44H27.13a1.44,1.44,0,0,0,0,2.87h9.83A1.44,1.44,0,0,0,38.3,11.31Z"/><path class="cls-2" d="M30.27,9.37h3.46a4.32,4.32,0,1,0-3.46,0Z"/><path class="cls-2" d="M39.41,21.91H24.58c-1.87.76-3.48,1.71-3.48,5.16H42.89C42.89,23.62,41.28,22.66,39.41,21.91Z"/><path class="cls-1" d="M60.82,20.89l-.19-.08a8.59,8.59,0,0,0-3.52-4.41V13.84h.84a2.54,2.54,0,0,0-.09-5.07h-.63a5.42,5.42,0,1,0-8.47,0h-.63a2.54,2.54,0,0,0,0,5.07h.8V16.4a8.58,8.58,0,0,0-3.52,4.41l-.19.08c-2,.81-4.17,2-4.17,6.18v1.1H65v-1.1C65,22.92,62.84,21.7,60.82,20.89Z"/><path class="cls-2" d="M50,13.25v3.82a7,7,0,0,0-3.68,4.34H59.69A7,7,0,0,0,56,17.07V13.25Z"/><path class="cls-2" d="M59.3,11.31a1.44,1.44,0,0,0-1.44-1.44H48.13a1.44,1.44,0,0,0,0,2.87h9.83A1.44,1.44,0,0,0,59.3,11.31Z"/><path class="cls-2" d="M51.27,9.37h3.46a4.32,4.32,0,1,0-3.46,0Z"/><path class="cls-2" d="M60.41,21.91H45.58c-1.87.76-3.48,1.71-3.48,5.16H63.89C63.89,23.62,62.28,22.66,60.41,21.91Z"/><path class="cls-1" d="M81.82,20.89l-.19-.08a8.59,8.59,0,0,0-3.52-4.41V13.84h.84a2.54,2.54,0,0,0-.09-5.07h-.63a5.42,5.42,0,1,0-8.47,0h-.63a2.54,2.54,0,0,0,0,5.07h.8V16.4a8.58,8.58,0,0,0-3.52,4.41l-.19.08c-2,.81-4.17,2-4.17,6.18v1.1H86v-1.1C86,22.92,83.84,21.7,81.82,20.89Z"/><path class="cls-2" d="M71,13.25v3.82a7,7,0,0,0-3.68,4.34H80.69A7,7,0,0,0,77,17.07V13.25Z"/><path class="cls-2" d="M80.3,11.31a1.44,1.44,0,0,0-1.44-1.44H69.13a1.44,1.44,0,0,0,0,2.87h9.83A1.44,1.44,0,0,0,80.3,11.31Z"/><path class="cls-2" d="M72.27,9.37h3.46a4.32,4.32,0,1,0-3.46,0Z"/><path class="cls-2" d="M81.41,21.91H66.58c-1.87.76-3.48,1.71-3.48,5.16H84.89C84.89,23.62,83.28,22.66,81.41,21.91Z"/><path class="cls-1" d="M100.82,20.89l-.19-.08a8.59,8.59,0,0,0-3.52-4.41V13.84h.84a2.54,2.54,0,0,0-.09-5.07h-.63a5.42,5.42,0,1,0-8.47,0h-.63a2.54,2.54,0,0,0,0,5.07h.8V16.4a8.58,8.58,0,0,0-3.52,4.41l-.19.08c-2,.81-4.17,2-4.17,6.18v1.1h24v-1.1C105,22.92,102.84,21.7,100.82,20.89Z"/><path class="cls-2" d="M90,13.25v3.82a7,7,0,0,0-3.68,4.34H99.69A7,7,0,0,0,96,17.07V13.25Z"/><path class="cls-2" d="M99.3,11.31a1.44,1.44,0,0,0-1.44-1.44H88.13a1.44,1.44,0,0,0,0,2.87h9.83A1.44,1.44,0,0,0,99.3,11.31Z"/><path class="cls-2" d="M91.27,9.37h3.46a4.32,4.32,0,1,0-3.46,0Z"/><path class="cls-2" d="M100.41,21.91H85.58c-1.87.76-3.48,1.71-3.48,5.16h21.79C103.89,23.62,102.28,22.66,100.41,21.91Z"/><path class="cls-1" d="M120.82,20.89l-.19-.08a8.59,8.59,0,0,0-3.52-4.41V13.84h.84a2.54,2.54,0,0,0-.09-5.07h-.63a5.42,5.42,0,1,0-8.47,0h-.63a2.54,2.54,0,0,0,0,5.07h.8V16.4a8.58,8.58,0,0,0-3.52,4.41l-.19.08c-2,.81-4.17,2-4.17,6.18v1.1h24v-1.1C125,22.92,122.84,21.7,120.82,20.89Z"/><path class="cls-2" d="M110,13.25v3.82a7,7,0,0,0-3.68,4.34h13.39A7,7,0,0,0,116,17.07V13.25Z"/><path class="cls-2" d="M119.3,11.31a1.44,1.44,0,0,0-1.44-1.44h-9.73a1.44,1.44,0,0,0,0,2.87h9.83A1.44,1.44,0,0,0,119.3,11.31Z"/><path class="cls-2" d="M111.27,9.37h3.46a4.32,4.32,0,1,0-3.46,0Z"/><path class="cls-2" d="M120.41,21.91H105.58c-1.87.76-3.48,1.71-3.48,5.16h21.79C123.89,23.62,122.28,22.66,120.41,21.91Z"/><path class="cls-1" d="M141.82,20.89l-.19-.08a8.59,8.59,0,0,0-3.52-4.41V13.84h.84a2.54,2.54,0,0,0-.09-5.07h-.63a5.42,5.42,0,1,0-8.47,0h-.63a2.54,2.54,0,0,0,0,5.07h.8V16.4a8.58,8.58,0,0,0-3.52,4.41l-.19.08c-2,.81-4.17,2-4.17,6.18v1.1h24v-1.1C146,22.92,143.84,21.7,141.82,20.89Z"/><path class="cls-2" d="M131,13.25v3.82a7,7,0,0,0-3.68,4.34h13.39A7,7,0,0,0,137,17.07V13.25Z"/><path class="cls-2" d="M140.3,11.31a1.44,1.44,0,0,0-1.44-1.44h-9.73a1.44,1.44,0,0,0,0,2.87h9.83A1.44,1.44,0,0,0,140.3,11.31Z"/><path class="cls-2" d="M132.27,9.37h3.46a4.32,4.32,0,1,0-3.46,0Z"/><path class="cls-2" d="M141.41,21.91H126.58c-1.87.76-3.48,1.71-3.48,5.16h21.79C144.89,23.62,143.28,22.66,141.41,21.91Z"/><path class="cls-1" d="M162.82,20.89l-.19-.08a8.59,8.59,0,0,0-3.52-4.41V13.84h.84a2.54,2.54,0,0,0-.09-5.07h-.63a5.42,5.42,0,1,0-8.47,0h-.63a2.54,2.54,0,0,0,0,5.07h.8V16.4a8.58,8.58,0,0,0-3.52,4.41l-.19.08c-2,.81-4.17,2-4.17,6.18v1.1h24v-1.1C167,22.92,164.84,21.7,162.82,20.89Z"/><path class="cls-2" d="M152,13.25v3.82a7,7,0,0,0-3.68,4.34h13.39A7,7,0,0,0,158,17.07V13.25Z"/><path class="cls-2" d="M161.3,11.31a1.44,1.44,0,0,0-1.44-1.44h-9.73a1.44,1.44,0,0,0,0,2.87h9.83A1.44,1.44,0,0,0,161.3,11.31Z"/><path class="cls-2" d="M153.27,9.37h3.46a4.32,4.32,0,1,0-3.46,0Z"/><path class="cls-2" d="M162.41,21.91H147.58c-1.87.76-3.48,1.71-3.48,5.16h21.79C165.89,23.62,164.28,22.66,162.41,21.91Z"/></g></g></svg>