<?xml version="1.0" encoding="utf-8"?>
<!-- Generated by IcoMoon.io -->
<!DOCTYPE svg PUBLIC "-//W3C//DTD SVG 1.1//EN" "http://www.w3.org/Graphics/SVG/1.1/DTD/svg11.dtd">
<svg version="1.1" xmlns="http://www.w3.org/2000/svg" xmlns:xlink="http://www.w3.org/1999/xlink" width="60" height="60" viewBox="0 0 60 60">
<path d="M57.073 15.557c-1.977-1.977-4.694-2.927-7.705-2.927-4.036 0-8.602 1.706-12.629 4.929-0.953-2.919-2.723-5.128-4.864-5.954v-4.104h5.625v-3.75h-5.625v-3.75h-3.75v3.75h-5.625v3.75h5.625v4.104c-2.141 0.827-3.911 3.035-4.864 5.954-4.027-3.223-8.592-4.929-12.629-4.929-3.011 0-5.728 0.95-7.705 2.927-5.126 5.126-3.345 15.217 3.977 22.539 1.369 1.369 2.834 2.542 4.346 3.515v5.494c5.136 1.029 11.655 1.646 18.75 1.646s13.614-0.616 18.75-1.646v-5.494c1.511-0.972 2.977-2.146 4.346-3.515 7.322-7.322 9.103-17.414 3.977-22.539zM9.556 22.186c0.063-0.042 0.401-0.181 1.076-0.182h0.001c1.866 0 5.134 1.089 8.204 4.158 2.026 2.026 3.476 4.474 3.978 6.718 0.358 1.601 0.090 2.431-0.001 2.563-0.063 0.042-0.4 0.182-1.076 0.182-1.867 0-5.135-1.089-8.205-4.159-2.026-2.026-3.476-4.475-3.978-6.718-0.358-1.6-0.090-2.431 0.001-2.562zM50.445 24.749c-0.502 2.244-1.952 4.692-3.978 6.718-3.069 3.069-6.338 4.159-8.205 4.159-0.675 0-1.013-0.139-1.076-0.181-0.091-0.131-0.359-0.961-0.001-2.562 0.502-2.244 1.952-4.692 3.978-6.718 3.069-3.069 6.338-4.159 8.205-4.159 0.675 0 1.013 0.139 1.076 0.181 0.091 0.131 0.359 0.962 0.001 2.563zM11.25 52.832v5.522c5.136 1.029 11.655 1.646 18.75 1.646s13.614-0.616 18.75-1.646v-5.522c-5.498 1.011-11.951 1.543-18.75 1.543s-13.252-0.532-18.75-1.543z"></path>
</svg>
