<?xml version="1.0" encoding="utf-8"?>
<!-- Generated by IcoMoon.io -->
<!DOCTYPE svg PUBLIC "-//W3C//DTD SVG 1.1//EN" "http://www.w3.org/Graphics/SVG/1.1/DTD/svg11.dtd">
<svg version="1.1" xmlns="http://www.w3.org/2000/svg" xmlns:xlink="http://www.w3.org/1999/xlink" width="60" height="60" viewBox="0 0 60 60">
<path d="M58.125 56.25h-43.125l-1.875 3.75h46.875zM33.251 30c0.788 12.182-9.934 16.964-13.633 24.375h36.631c0-4.195 0-10.894 0-20.625 0-13.028-5.102-22.433-11.128-26.961-0.278-1.183-0.698-2.489-1.166-3.551l-0.724-1.642c-0.832-1.887-2.595-2.136-3.917-0.553l-2.263 2.709c-0.017-0-0.033-0.001-0.050-0.001-0.965 0-1.854 0.030-2.678 0.087l-4.953-3.302c-1.716-1.144-3.12-0.393-3.12 1.67v3.819c-1.521 0.861-2.796 1.903-4.249 3.011-3.75 2.859-12.765 14.187-18.75 20.965-5.537 6.27-2.546 11.25 2.695 10.078-0.263 4.922 3.838 3.34 6.68 1.172 6.552-4.999 21.182-2.637 20.625-11.25zM45.406 10.141c2.022 2.047 3.768 4.665 5.125 7.705 2.085 4.671 3.141 10.022 3.141 15.904v16.875l-5.625-5.625v-11.25c0-5.087-0.893-9.667-2.653-13.611-1.079-2.417-2.43-4.463-3.965-6.021l3.977-3.977zM9.375 34.527c-1.464 0-2.652-1.187-2.652-2.652s1.187-2.652 2.652-2.652c1.464 0 2.652 1.187 2.652 2.652s-1.187 2.652-2.652 2.652zM28.239 16.872c-2.197 2.197-4.868 3.087-5.966 1.989s-0.208-3.77 1.989-5.966c2.197-2.197 4.868-3.087 5.966-1.989s0.208 3.769-1.989 5.966z"></path>
</svg>
