<?xml version="1.0" encoding="utf-8"?>
<!-- Generated by IcoMoon.io -->
<!DOCTYPE svg PUBLIC "-//W3C//DTD SVG 1.1//EN" "http://www.w3.org/Graphics/SVG/1.1/DTD/svg11.dtd">
<svg version="1.1" xmlns="http://www.w3.org/2000/svg" xmlns:xlink="http://www.w3.org/1999/xlink" width="60" height="60" viewBox="0 0 60 60">
<path d="M43.126 37.263c1.193-2.152 1.874-4.628 1.874-7.263 0-6.054-3.586-11.269-8.75-13.639 1.917-1.717 3.125-4.21 3.125-6.986 0-5.178-4.197-9.375-9.375-9.375s-9.375 4.197-9.375 9.375c0 2.776 1.208 5.269 3.125 6.986-5.164 2.37-8.75 7.585-8.75 13.639 0 2.635 0.68 5.111 1.874 7.263-7.845 4.539-13.124 13.021-13.124 22.737h52.5c0-9.716-5.279-18.198-13.124-22.737z"></path>
</svg>
