<?xml version="1.0" encoding="utf-8"?>
<!-- Generated by IcoMoon.io -->
<!DOCTYPE svg PUBLIC "-//W3C//DTD SVG 1.1//EN" "http://www.w3.org/Graphics/SVG/1.1/DTD/svg11.dtd">
<svg version="1.1" xmlns="http://www.w3.org/2000/svg" xmlns:xlink="http://www.w3.org/1999/xlink" width="60" height="60" viewBox="0 0 60 60">
<path fill="#fff" d="M30 56.25c-6.714 0-13.228-0.582-18.342-1.639-0.137-0.028-0.273-0.057-0.408-0.086v3.829c5.136 1.029 11.655 1.646 18.75 1.646s13.614-0.616 18.75-1.646v-3.829c-0.135 0.029-0.271 0.058-0.408 0.086-5.114 1.057-11.628 1.639-18.342 1.639zM45 50.507v-1.757l-1.875-3.75h-26.25l-1.875 3.75v1.757c4.413 0.638 9.536 1.004 15 1.004s10.587-0.365 15-1.004zM58.682 16.503c-1.757-1.757-4.607-1.757-6.364 0-1.491 1.491-1.716 3.768-0.677 5.497l-11.445 6.867 2.256-10.647c1.973 0.42 4.053-0.535 4.977-2.43 1.089-2.234 0.162-4.928-2.072-6.017s-4.928-0.162-6.017 2.072c-0.924 1.895-0.396 4.122 1.15 5.418l-6.926 8.244-2.473-9.891c1.958-0.488 3.408-2.257 3.408-4.366 0-2.485-2.015-4.5-4.5-4.5s-4.5 2.015-4.5 4.5c0 2.109 1.451 3.878 3.409 4.366l-2.473 9.891-6.926-8.244c1.546-1.297 2.074-3.523 1.15-5.418-1.089-2.234-3.784-3.161-6.017-2.072s-3.161 3.784-2.072 6.017c0.924 1.895 3.004 2.85 4.977 2.43l2.256 10.647-11.445-6.867c1.039-1.729 0.814-4.006-0.677-5.497-1.757-1.757-4.607-1.757-6.364 0s-1.757 4.607 0 6.364c1.491 1.491 3.768 1.716 5.497 0.677l10.623 17.706h25.122l10.623-17.706c1.729 1.039 4.006 0.814 5.497-0.677 1.757-1.757 1.757-4.607 0-6.364z"></path>
</svg>
