<svg xmlns="http://www.w3.org/2000/svg" viewBox="0 0 50.41 32.55"><defs><style>.cls-1{fill:#231f20;}.cls-2{fill:#fff;}</style></defs><title>bishop-white-2</title><g id="Calque_2" data-name="Calque 2"><g id="chess_pieces" data-name="chess pieces"><path class="cls-1" d="M24.14,24.18H22.48A2.41,2.41,0,0,0,23,22.66V20.72c3.13-3,4.1-6.44,2.58-9.3-1.4-2.64-4.2-5.17-6.59-7a2.82,2.82,0,0,0,.22-1.08c0-1.84-1.8-3.34-4-3.34s-4,1.5-4,3.34a2.83,2.83,0,0,0,.22,1.08C9,6.25,6.21,8.78,4.81,11.42c-1.52,2.86-.55,6.32,2.58,9.3v1.92A2.49,2.49,0,0,0,8,24.18H6.21C4.06,24.29,0,25.93,0,31.35v1.2H9.12c1.79,0,4.81-.75,6.09-3.22,1.28,2.49,4.3,3.22,6.09,3.22h9.11v-1.2C30.41,25.93,26.35,24.29,24.14,24.18Z"/><path class="cls-2" d="M8.44,20.06H22C24,18.17,26.16,15,24.54,12s-5-5.74-7.17-7.29A1.85,1.85,0,0,0,18,3.34C18,2.16,16.76,1.2,15.2,1.2s-2.82,1-2.82,2.14A1.85,1.85,0,0,0,13,4.7C10.91,6.24,7.41,9.07,5.87,12S6.36,18.17,8.44,20.06Zm3.77-8.93,2.35.35L14.2,9h2l-.35,2.47,2.35-.35v2l-2.35-.35.35,4.13h-2l.35-4.13-2.35.35Z"/><path class="cls-2" d="M24.14,25.38H18.2V24H20c1.87,0,1.81-1.33,1.81-1.33V20.56H8.59v2.09S8.57,24,10.4,24h1.8v1.39H6.27s-5.07.27-5.07,6H9.11s5.5,0,5.5-4.7V24H15.8v2.67c0,4.72,5.49,4.7,5.49,4.7h7.91C29.21,25.64,24.14,25.38,24.14,25.38Z"/><path class="cls-1" d="M44.14,24.18H42.48A2.41,2.41,0,0,0,43,22.66V20.72c3.13-3,4.1-6.44,2.58-9.3-1.4-2.64-4.2-5.17-6.59-7a2.82,2.82,0,0,0,.22-1.08c0-1.84-1.8-3.34-4-3.34s-4,1.5-4,3.34a2.83,2.83,0,0,0,.22,1.08c-2.39,1.83-5.19,4.35-6.59,7-1.52,2.86-.55,6.32,2.58,9.3v1.92A2.49,2.49,0,0,0,28,24.18H26.21c-2.15.11-6.21,1.76-6.21,7.17v1.2h9.12c1.79,0,4.81-.75,6.09-3.22,1.28,2.49,4.3,3.22,6.09,3.22h9.11v-1.2C50.41,25.93,46.35,24.29,44.14,24.18Z"/><path class="cls-2" d="M28.44,20.06H42C44,18.17,46.16,15,44.54,12s-5-5.74-7.17-7.29A1.85,1.85,0,0,0,38,3.34C38,2.16,36.76,1.2,35.2,1.2s-2.82,1-2.82,2.14A1.85,1.85,0,0,0,33,4.7C30.91,6.24,27.41,9.07,25.87,12S26.36,18.17,28.44,20.06Zm3.77-8.93,2.35.35L34.2,9h2l-.35,2.47,2.35-.35v2l-2.35-.35.35,4.13h-2l.35-4.13-2.35.35Z"/><path class="cls-2" d="M44.14,25.38H38.2V24H40c1.87,0,1.81-1.33,1.81-1.33V20.56H28.59v2.09S28.57,24,30.4,24h1.8v1.39H26.27s-5.07.27-5.07,6h7.91s5.5,0,5.5-4.7V24H35.8v2.67c0,4.72,5.49,4.7,5.49,4.7h7.91C49.21,25.64,44.14,25.38,44.14,25.38Z"/></g></g></svg>