<svg xmlns="http://www.w3.org/2000/svg" viewBox="0 0 52.16 33.41"><defs><style>.cls-1{fill:#231f20;}.cls-2{fill:#fff;}</style></defs><title>knight-white-2</title><g id="Calque_2" data-name="Calque 2"><g id="chess_pieces" data-name="chess pieces"><path class="cls-1" d="M.46,31.86,0,33.4H29.11L29,32.11c-.23-2.92-2-5.64-4.12-7.69a2.09,2.09,0,0,0,1.49.24,3.51,3.51,0,0,0,1.68-1.14,1.9,1.9,0,0,0,1.52-.68A1.79,1.79,0,0,0,29.85,21H30a1.75,1.75,0,0,0,1.65-2.5,5.73,5.73,0,0,0,.49-2.06c0-1.65-1.44-2.82-2.78-3.79S24.56,9,23.51,8A16,16,0,0,0,19.3,4.86,11.55,11.55,0,0,0,17,4.22,5.88,5.88,0,0,0,15.68.5l-.5-.5-.67.19a7.71,7.71,0,0,0-4.37,4l-.71.33c-1.65,1-8,5.49-8,15.62C1.37,28.7.47,31.83.46,31.86Z"/><path class="cls-2" d="M9.74,32.21H27.81c-.37-4.79-5.75-9.21-8.46-10.12s-4.62-.87-6.21-2.67-1.67-3.29-1.37-5.71a6.81,6.81,0,0,0,1.79,5c1.29,1.12,4.46,1.54,5.54,1.5a7.47,7.47,0,0,1,4.17,1.37c1.33,1,2.12,2,2.83,1.87s1.46-1.29,1.46-1.29.71.33,1.08-.12a.65.65,0,0,0,0-.87s-.54-.37-.87-.67-.71-.67-.37-1.25a.94.94,0,0,1,1.25-.42,12.88,12.88,0,0,1,1.23.87.76.76,0,0,0,.66-.16c.41-.47-.19-1-.19-1A5.71,5.71,0,0,0,31,16.41c0-.94-.84-1.78-2.28-2.81s-4.91-3.72-6-4.78A14.74,14.74,0,0,0,18.83,6a12.74,12.74,0,0,0-3-.72s.19-2.75-1-3.91c-1.8.5-5.36,3.71-3.42,6.9l.19.31-.41.37c-.72.63-2.61,2.59-3.14,8.16a19.43,19.43,0,0,0,.69,6.5A32.5,32.5,0,0,1,9.74,32.21Zm17-16.52c0-.5,1-.78,1.47-.37a1.34,1.34,0,0,1,.44,1c-.28-.12-.44,0-.94.12A.75.75,0,0,1,26.77,15.69Zm-9.62-4.53a.94.94,0,1,1,.94.94A.94.94,0,0,1,17.14,11.16Zm-1.54-.7a2.93,2.93,0,0,1,1.5-1.81,2.4,2.4,0,0,1,2.57.65l2.73,2.65A30.81,30.81,0,0,0,19,9.56a2.42,2.42,0,0,0-1.54-.32A3,3,0,0,0,15.6,10.45Z"/><path class="cls-2" d="M2.61,20.12c0-9.83,6.25-14,7.71-14.75a4.33,4.33,0,0,0,.6,3c-.89.81-3,3-3.59,8.59A20.4,20.4,0,0,0,8,23.78a31.7,31.7,0,0,1,1,8.43H1.61S2.56,29.08,2.61,20.12Z"/><path class="cls-1" d="M20.46,31.86,20,33.4H49.11L49,32.11c-.23-2.92-2-5.64-4.12-7.69a2.09,2.09,0,0,0,1.49.24,3.51,3.51,0,0,0,1.68-1.14,1.9,1.9,0,0,0,1.52-.68A1.79,1.79,0,0,0,49.85,21H50a1.75,1.75,0,0,0,1.65-2.5,5.73,5.73,0,0,0,.49-2.06c0-1.65-1.44-2.82-2.78-3.79S44.56,9,43.51,8A16,16,0,0,0,39.3,4.86,11.55,11.55,0,0,0,37,4.22,5.88,5.88,0,0,0,35.68.5l-.5-.5-.67.19a7.71,7.71,0,0,0-4.37,4l-.71.33c-1.65,1-8,5.49-8,15.62C21.37,28.7,20.47,31.83,20.46,31.86Z"/><path class="cls-2" d="M29.74,32.21H47.81c-.37-4.79-5.75-9.21-8.46-10.12s-4.62-.87-6.21-2.67-1.67-3.29-1.37-5.71a6.81,6.81,0,0,0,1.79,5c1.29,1.12,4.46,1.54,5.54,1.5a7.47,7.47,0,0,1,4.17,1.37c1.33,1,2.12,2,2.83,1.87s1.46-1.29,1.46-1.29.71.33,1.08-.12a.65.65,0,0,0,0-.87s-.54-.37-.87-.67-.71-.67-.37-1.25a.94.94,0,0,1,1.25-.42,12.88,12.88,0,0,1,1.23.87.76.76,0,0,0,.66-.16c.41-.47-.19-1-.19-1A5.71,5.71,0,0,0,51,16.41c0-.94-.84-1.78-2.28-2.81s-4.91-3.72-6-4.78A14.74,14.74,0,0,0,38.83,6a12.74,12.74,0,0,0-3-.72s.19-2.75-1-3.91c-1.8.5-5.36,3.71-3.42,6.9l.19.31-.41.37c-.72.63-2.61,2.59-3.14,8.16a19.43,19.43,0,0,0,.69,6.5A32.5,32.5,0,0,1,29.74,32.21Zm17-16.52c0-.5,1-.78,1.47-.37a1.34,1.34,0,0,1,.44,1c-.28-.12-.44,0-.94.12A.75.75,0,0,1,46.77,15.69Zm-9.62-4.53a.94.94,0,1,1,.94.94A.94.94,0,0,1,37.14,11.16Zm-1.54-.7a2.93,2.93,0,0,1,1.5-1.81,2.4,2.4,0,0,1,2.57.65l2.73,2.65A30.81,30.81,0,0,0,39,9.56a2.42,2.42,0,0,0-1.54-.32A3,3,0,0,0,35.6,10.45Z"/><path class="cls-2" d="M22.61,20.12c0-9.83,6.25-14,7.71-14.75a4.33,4.33,0,0,0,.6,3c-.89.81-3,3-3.59,8.59A20.4,20.4,0,0,0,28,23.78a31.7,31.7,0,0,1,1,8.43h-7.4S22.56,29.08,22.61,20.12Z"/></g></g></svg>