<svg xmlns="http://www.w3.org/2000/svg" viewBox="0 0 83.99 28.17"><defs><style>.cls-1{fill:#fff;}.cls-2{fill:#231f20;}</style></defs><title>pawn-black-7</title><g id="Calque_2" data-name="Calque 2"><g id="chess_pieces" data-name="chess pieces"><path class="cls-1" d="M19.82,20.89l-.19-.08a8.59,8.59,0,0,0-3.52-4.41V13.84h.84a2.54,2.54,0,0,0-.09-5.07h-.63a5.42,5.42,0,1,0-8.47,0H7.13a2.54,2.54,0,0,0,0,5.07h.8V16.4a8.58,8.58,0,0,0-3.52,4.41l-.19.08c-2,.81-4.17,2-4.17,6.18v1.1H24v-1.1C24,22.92,21.84,21.7,19.82,20.89Z"/><path class="cls-2" d="M9,13.25v3.82A7,7,0,0,0,5.3,21.41H18.69A7,7,0,0,0,15,17.07V13.25Z"/><path class="cls-2" d="M18.3,11.31a1.44,1.44,0,0,0-1.44-1.44H7.13a1.44,1.44,0,0,0,0,2.87h9.83A1.44,1.44,0,0,0,18.3,11.31Z"/><path class="cls-2" d="M10.27,9.37h3.46a4.32,4.32,0,1,0-3.46,0Z"/><path class="cls-2" d="M19.41,21.91H4.58c-1.87.76-3.48,1.71-3.48,5.16H22.89C22.89,23.62,21.28,22.66,19.41,21.91Z"/><path class="cls-1" d="M29.82,20.89l-.19-.08a8.59,8.59,0,0,0-3.52-4.41V13.84h.84a2.54,2.54,0,0,0-.09-5.07h-.63a5.42,5.42,0,1,0-8.47,0h-.63a2.54,2.54,0,0,0,0,5.07h.8V16.4a8.58,8.58,0,0,0-3.52,4.41l-.19.08c-2,.81-4.17,2-4.17,6.18v1.1H34v-1.1C34,22.92,31.84,21.7,29.82,20.89Z"/><path class="cls-2" d="M19,13.25v3.82a7,7,0,0,0-3.68,4.34H28.69A7,7,0,0,0,25,17.07V13.25Z"/><path class="cls-2" d="M28.3,11.31a1.44,1.44,0,0,0-1.44-1.44H17.13a1.44,1.44,0,0,0,0,2.87h9.83A1.44,1.44,0,0,0,28.3,11.31Z"/><path class="cls-2" d="M20.27,9.37h3.46a4.32,4.32,0,1,0-3.46,0Z"/><path class="cls-2" d="M29.41,21.91H14.58c-1.87.76-3.48,1.71-3.48,5.16H32.89C32.89,23.62,31.28,22.66,29.41,21.91Z"/><path class="cls-1" d="M39.82,20.89l-.19-.08a8.59,8.59,0,0,0-3.52-4.41V13.84h.84a2.54,2.54,0,0,0-.09-5.07h-.63a5.42,5.42,0,1,0-8.47,0h-.63a2.54,2.54,0,0,0,0,5.07h.8V16.4a8.58,8.58,0,0,0-3.52,4.41l-.19.08c-2,.81-4.17,2-4.17,6.18v1.1H44v-1.1C44,22.92,41.84,21.7,39.82,20.89Z"/><path class="cls-2" d="M29,13.25v3.82a7,7,0,0,0-3.68,4.34H38.69A7,7,0,0,0,35,17.07V13.25Z"/><path class="cls-2" d="M38.3,11.31a1.44,1.44,0,0,0-1.44-1.44H27.13a1.44,1.44,0,0,0,0,2.87h9.83A1.44,1.44,0,0,0,38.3,11.31Z"/><path class="cls-2" d="M30.27,9.37h3.46a4.32,4.32,0,1,0-3.46,0Z"/><path class="cls-2" d="M39.41,21.91H24.58c-1.87.76-3.48,1.71-3.48,5.16H42.89C42.89,23.62,41.28,22.66,39.41,21.91Z"/><path class="cls-1" d="M49.82,20.89l-.19-.08a8.59,8.59,0,0,0-3.52-4.41V13.84h.84a2.54,2.54,0,0,0-.09-5.07h-.63a5.42,5.42,0,1,0-8.47,0h-.63a2.54,2.54,0,0,0,0,5.07h.8V16.4a8.58,8.58,0,0,0-3.52,4.41l-.19.08c-2,.81-4.17,2-4.17,6.18v1.1H54v-1.1C54,22.92,51.84,21.7,49.82,20.89Z"/><path class="cls-2" d="M39,13.25v3.82a7,7,0,0,0-3.68,4.34H48.69A7,7,0,0,0,45,17.07V13.25Z"/><path class="cls-2" d="M48.3,11.31a1.44,1.44,0,0,0-1.44-1.44H37.13a1.44,1.44,0,0,0,0,2.87h9.83A1.44,1.44,0,0,0,48.3,11.31Z"/><path class="cls-2" d="M40.27,9.37h3.46a4.32,4.32,0,1,0-3.46,0Z"/><path class="cls-2" d="M49.41,21.91H34.58c-1.87.76-3.48,1.71-3.48,5.16H52.89C52.89,23.62,51.28,22.66,49.41,21.91Z"/><path class="cls-1" d="M59.82,20.89l-.19-.08a8.59,8.59,0,0,0-3.52-4.41V13.84h.84a2.54,2.54,0,0,0-.09-5.07h-.63a5.42,5.42,0,1,0-8.47,0h-.63a2.54,2.54,0,0,0,0,5.07h.8V16.4a8.58,8.58,0,0,0-3.52,4.41l-.19.08c-2,.81-4.17,2-4.17,6.18v1.1H64v-1.1C64,22.92,61.84,21.7,59.82,20.89Z"/><path class="cls-2" d="M49,13.25v3.82a7,7,0,0,0-3.68,4.34H58.69A7,7,0,0,0,55,17.07V13.25Z"/><path class="cls-2" d="M58.3,11.31a1.44,1.44,0,0,0-1.44-1.44H47.13a1.44,1.44,0,0,0,0,2.87h9.83A1.44,1.44,0,0,0,58.3,11.31Z"/><path class="cls-2" d="M50.27,9.37h3.46a4.32,4.32,0,1,0-3.46,0Z"/><path class="cls-2" d="M59.41,21.91H44.58c-1.87.76-3.48,1.71-3.48,5.16H62.89C62.89,23.62,61.28,22.66,59.41,21.91Z"/><path class="cls-1" d="M69.82,20.89l-.19-.08a8.59,8.59,0,0,0-3.52-4.41V13.84h.84a2.54,2.54,0,0,0-.09-5.07h-.63a5.42,5.42,0,1,0-8.47,0h-.63a2.54,2.54,0,0,0,0,5.07h.8V16.4a8.58,8.58,0,0,0-3.52,4.41l-.19.08c-2,.81-4.17,2-4.17,6.18v1.1H74v-1.1C74,22.92,71.84,21.7,69.82,20.89Z"/><path class="cls-2" d="M59,13.25v3.82a7,7,0,0,0-3.68,4.34H68.69A7,7,0,0,0,65,17.07V13.25Z"/><path class="cls-2" d="M68.3,11.31a1.44,1.44,0,0,0-1.44-1.44H57.13a1.44,1.44,0,0,0,0,2.87h9.83A1.44,1.44,0,0,0,68.3,11.31Z"/><path class="cls-2" d="M60.27,9.37h3.46a4.32,4.32,0,1,0-3.46,0Z"/><path class="cls-2" d="M69.41,21.91H54.58c-1.87.76-3.48,1.71-3.48,5.16H72.89C72.89,23.62,71.28,22.66,69.41,21.91Z"/><path class="cls-1" d="M79.82,20.89l-.19-.08a8.59,8.59,0,0,0-3.52-4.41V13.84h.84a2.54,2.54,0,0,0-.09-5.07h-.63a5.42,5.42,0,1,0-8.47,0h-.63a2.54,2.54,0,0,0,0,5.07h.8V16.4a8.58,8.58,0,0,0-3.52,4.41l-.19.08c-2,.81-4.17,2-4.17,6.18v1.1H84v-1.1C84,22.92,81.84,21.7,79.82,20.89Z"/><path class="cls-2" d="M69,13.25v3.82a7,7,0,0,0-3.68,4.34H78.69A7,7,0,0,0,75,17.07V13.25Z"/><path class="cls-2" d="M78.3,11.31a1.44,1.44,0,0,0-1.44-1.44H67.13a1.44,1.44,0,0,0,0,2.87h9.83A1.44,1.44,0,0,0,78.3,11.31Z"/><path class="cls-2" d="M70.27,9.37h3.46a4.32,4.32,0,1,0-3.46,0Z"/><path class="cls-2" d="M79.41,21.91H64.58c-1.87.76-3.48,1.71-3.48,5.16H82.89C82.89,23.62,81.28,22.66,79.41,21.91Z"/></g></g></svg>