<svg xmlns="http://www.w3.org/2000/svg" viewBox="0 0 49.62 30.59"><defs><style>.cls-1{fill:#fff;}.cls-2{fill:#231f20;}</style></defs><title>rook-black-2_1</title><g id="Calque_2" data-name="Calque 2"><g id="chess_pieces" data-name="chess pieces"><path class="cls-1" d="M28.92,29.89l-.27.7H1l-.27-.7c-2.35-6.06,1.82-8.33,3.19-9.08l.16-.09a17.22,17.22,0,0,1,3.23-6.1V11.47a4.41,4.41,0,0,1-2.63-1.34A4.76,4.76,0,0,1,3.51,6.7V0h6.61V3.14h.95V0h7.5V3.14h.95V0h6.61V6.8A4.71,4.71,0,0,1,25,10.13a4.4,4.4,0,0,1-2.63,1.34v3.15a17.22,17.22,0,0,1,3.23,6.1l.16.09C27.1,21.55,31.27,23.82,28.92,29.89Z"/><path class="cls-2" d="M24.59,21.27A16,16,0,0,0,21.24,15V11H8.39V15A16,16,0,0,0,5,21.27Z"/><path class="cls-2" d="M25.2,21.77H4.42C2,23.11,0,25.11,1.73,29.49H27.89C29.59,25.11,27.66,23.11,25.2,21.77Z"/><path class="cls-2" d="M8.39,10.46H21.24C25.34,10.46,25,6.8,25,6.8V1.1H20.61V4.24H17.46V1.1h-5.3V4.24H9V1.1H4.61V6.8S4.29,10.46,8.39,10.46Z"/><path class="cls-1" d="M48.92,29.89l-.27.7H21l-.27-.7c-2.35-6.06,1.82-8.33,3.19-9.08l.16-.09a17.22,17.22,0,0,1,3.23-6.1V11.47a4.41,4.41,0,0,1-2.63-1.34A4.76,4.76,0,0,1,23.51,6.7V0h6.61V3.14h.95V0h7.5V3.14h.95V0h6.61V6.8A4.71,4.71,0,0,1,45,10.13a4.4,4.4,0,0,1-2.63,1.34v3.15a17.22,17.22,0,0,1,3.23,6.1l.16.09C47.1,21.55,51.27,23.82,48.92,29.89Z"/><path class="cls-2" d="M44.59,21.27A16,16,0,0,0,41.24,15V11H28.39V15A16,16,0,0,0,25,21.27Z"/><path class="cls-2" d="M45.2,21.77H24.42C22,23.11,20,25.11,21.73,29.49H47.89C49.59,25.11,47.66,23.11,45.2,21.77Z"/><path class="cls-2" d="M28.39,10.46H41.24C45.34,10.46,45,6.8,45,6.8V1.1H40.61V4.24H37.46V1.1h-5.3V4.24H29V1.1H24.61V6.8S24.29,10.46,28.39,10.46Z"/></g></g></svg>