<svg xmlns="http://www.w3.org/2000/svg" viewBox="0 0 49.83 30.79"><defs><style>.cls-1{fill:#231f20;}.cls-2{fill:#fff;}</style></defs><title>rook-white-2</title><g id="Calque_2" data-name="Calque 2"><g id="chess_pieces" data-name="chess pieces"><path class="cls-1" d="M25.88,20.82l-.12-.07a17.34,17.34,0,0,0-3.22-6.07v-3a4.47,4.47,0,0,0,2.61-1.36,4.86,4.86,0,0,0,1.17-3.44V0H19.51V3.14h-.75V0h-7.7V3.14h-.75V0H3.51V6.86a4.86,4.86,0,0,0,1.17,3.44,4.47,4.47,0,0,0,2.61,1.36v3a17.34,17.34,0,0,0-3.22,6.07L4,20.82C2.56,21.57-1.67,23.88.72,30l.3.77h27.8l.3-.77C31.5,23.88,27.27,21.57,25.88,20.82Z"/><path class="cls-2" d="M24.69,21.37a16,16,0,0,0-3.35-6.25V11.06H8.49v4.07a16,16,0,0,0-3.35,6.25Z"/><path class="cls-2" d="M25.31,21.87H4.52C2.06,23.21.14,25.21,1.83,29.59H28C29.69,25.21,27.77,23.21,25.31,21.87Z"/><path class="cls-2" d="M8.49,10.56H21.34c4.1,0,3.78-3.66,3.78-3.66V1.2H20.71V4.34H17.56V1.2h-5.3V4.34H9.12V1.2H4.71V6.9S4.39,10.56,8.49,10.56Z"/><path class="cls-1" d="M45.88,20.82l-.12-.07a17.34,17.34,0,0,0-3.22-6.07v-3a4.47,4.47,0,0,0,2.61-1.36,4.86,4.86,0,0,0,1.17-3.44V0H39.51V3.14h-.75V0h-7.7V3.14h-.75V0H23.51V6.86a4.86,4.86,0,0,0,1.17,3.44,4.47,4.47,0,0,0,2.61,1.36v3a17.34,17.34,0,0,0-3.22,6.07l-.12.07c-1.39.76-5.62,3.06-3.23,9.2l.3.77h27.8l.3-.77C51.5,23.88,47.27,21.57,45.88,20.82Z"/><path class="cls-2" d="M44.69,21.37a16,16,0,0,0-3.35-6.25V11.06H28.49v4.07a16,16,0,0,0-3.35,6.25Z"/><path class="cls-2" d="M45.31,21.87H24.52c-2.46,1.34-4.39,3.34-2.69,7.72H48C49.69,25.21,47.77,23.21,45.31,21.87Z"/><path class="cls-2" d="M28.49,10.56H41.34c4.1,0,3.78-3.66,3.78-3.66V1.2H40.71V4.34H37.56V1.2h-5.3V4.34H29.12V1.2H24.71V6.9S24.39,10.56,28.49,10.56Z"/></g></g></svg>